<?xml version="1.0" encoding="UTF-8"?> <svg xmlns="http://www.w3.org/2000/svg" width="154" height="31" viewBox="0 0 154 31" fill="none"><g style="mix-blend-mode:multiply"><path d="M10.0309 6.12657C10.0309 7.25361 9.11427 8.17096 7.98808 8.17096C6.86189 8.17096 5.94522 7.25361 5.94522 6.12657C5.94522 4.99954 6.86189 4.08218 7.98808 4.08218C9.11427 4.08218 10.0309 4.99954 10.0309 6.12657Z" fill="#3C3C3C"></path><path d="M25.4833 12.8102L18.7786 22.4817C18.7786 22.5079 18.7262 22.4817 18.7524 22.4555L23.3357 9.06214L18.15 0.0982879C18.0714 -0.0327626 17.8881 -0.0327626 17.8095 0.0982879L8.98334 15.3788L0 30.9738H6.02381L16.4214 12.9674C16.4476 12.9412 16.4738 12.9674 16.4738 12.9937C15.6095 15.3264 10.3452 31 10.3452 31H21.0572C21.0572 31 25.2476 23.5825 25.9024 22.4555C25.9286 22.4293 24.4881 31 24.4881 31H35.9857L25.4833 12.8102Z" fill="#3C3C3C"></path><path d="M68.5405 5.45171V26.9964H64.2191V11.9518L58.6929 26.9702H54.9214L49.3952 12.0042V26.9702H45.0476V5.45171H50.3119L56.8595 21.6496L63.2762 5.45171H68.5405Z" fill="#3C3C3C"></path><path d="M87.8952 19.2645H75.3762C75.4286 20.7847 75.8476 21.9117 76.6071 22.6194C77.3667 23.327 78.3095 23.694 79.4357 23.694C80.431 23.694 81.2691 23.4581 81.95 22.9601C82.6048 22.4621 83.05 21.8069 83.2333 20.9419H87.8429C87.6071 22.1476 87.1357 23.196 86.4024 24.1396C85.669 25.0831 84.7 25.817 83.5476 26.3674C82.3952 26.8916 81.0857 27.1799 79.6714 27.1799C77.9952 27.1799 76.5286 26.813 75.219 26.1053C73.9357 25.3976 72.9143 24.3754 72.2071 23.0649C71.5 21.7544 71.1333 20.208 71.1333 18.3995C71.1333 16.6173 71.5 15.0447 72.2071 13.7341C72.9143 12.3974 73.9357 11.4014 75.219 10.6938C76.5024 9.9861 77.9952 9.64537 79.6714 9.64537C81.3476 9.64537 82.8405 9.9861 84.0976 10.6938C85.3548 11.4014 86.35 12.345 87.031 13.5769C87.7119 14.8088 88.0524 16.1979 88.0524 17.7705C88.0524 18.2161 88 18.7141 87.8952 19.2645ZM82.5786 14.1797C81.7929 13.472 80.8238 13.1051 79.6714 13.1051C78.4928 13.1051 77.5238 13.472 76.7119 14.1797C75.9 14.8874 75.4548 15.962 75.3762 17.3511H83.6786C83.731 15.962 83.3905 14.9136 82.5786 14.1797Z" fill="#3C3C3C"></path><path d="M105.548 11.5849C106.726 12.8692 107.302 14.7039 107.302 17.0366V26.9703H102.981V17.5346C102.981 16.1717 102.64 15.1233 101.933 14.3632C101.226 13.6031 100.283 13.2362 99.0524 13.2362C97.8214 13.2362 96.8262 13.6293 96.0929 14.4418C95.3595 15.2543 94.9929 16.4076 94.9929 17.9016V26.9703H90.6452V9.88126H94.9929V13.3148C95.4381 12.1615 96.1976 11.2704 97.219 10.6151C98.2667 9.95989 99.4452 9.64537 100.807 9.64537C102.798 9.64537 104.369 10.3006 105.548 11.5849Z" fill="#3C3C3C"></path><path d="M121 10.6937C122.021 11.3752 122.755 12.2926 123.2 13.4458V4.19363H127.521V26.9964H123.2V23.4056C122.755 24.5589 122.021 25.4762 121 26.1577C119.979 26.8392 118.748 27.1799 117.307 27.1799C115.867 27.1799 114.583 26.8392 113.431 26.1315C112.279 25.4238 111.388 24.4278 110.733 23.0911C110.079 21.7544 109.764 20.208 109.764 18.4257C109.764 16.6434 110.079 15.0708 110.733 13.7603C111.388 12.4236 112.279 11.4276 113.431 10.7199C114.583 10.0123 115.867 9.67154 117.307 9.67154C118.774 9.67154 120.005 10.0123 121 10.6937ZM115.421 14.8087C114.61 15.6999 114.19 16.9055 114.19 18.4519C114.19 19.9983 114.61 21.204 115.421 22.0689C116.233 22.9339 117.333 23.3794 118.695 23.3794C120.005 23.3794 121.105 22.9339 121.943 22.0427C122.807 21.1516 123.226 19.9459 123.226 18.4519C123.226 16.9317 122.807 15.7261 121.943 14.8349C121.079 13.9438 120.005 13.4982 118.695 13.4982C117.333 13.472 116.233 13.9176 115.421 14.8087Z" fill="#3C3C3C"></path><path d="M146.902 19.2645H134.383C134.436 20.7847 134.855 21.9117 135.614 22.6194C136.374 23.327 137.317 23.694 138.443 23.694C139.438 23.694 140.276 23.4581 140.957 22.9601C141.612 22.4621 142.057 21.8069 142.241 20.9419H146.824C146.588 22.1476 146.117 23.196 145.383 24.1396C144.65 25.0831 143.681 25.817 142.529 26.3674C141.376 26.8916 140.067 27.1799 138.652 27.1799C136.976 27.1799 135.51 26.813 134.2 26.1053C132.917 25.3976 131.895 24.3754 131.188 23.0649C130.481 21.7544 130.114 20.208 130.114 18.3995C130.114 16.6173 130.481 15.0447 131.188 13.7341C131.895 12.3974 132.917 11.4014 134.2 10.6938C135.483 9.9861 136.976 9.64537 138.652 9.64537C140.329 9.64537 141.821 9.9861 143.079 10.6938C144.336 11.4014 145.331 12.345 146.012 13.5769C146.693 14.8088 147.033 16.1979 147.033 17.7705C147.06 18.2161 147.007 18.7141 146.902 19.2645ZM141.586 14.1797C140.8 13.472 139.831 13.1051 138.679 13.1051C137.5 13.1051 136.531 13.472 135.719 14.1797C134.907 14.8874 134.462 15.962 134.383 17.3511H142.686C142.738 15.962 142.371 14.9136 141.586 14.1797Z" fill="#3C3C3C"></path><path d="M154 4.19363V26.9964H149.652V4.19363H154Z" fill="#3C3C3C"></path></g></svg> 